<svg width="106" height="21" viewBox="0 0 106 21" fill="none" xmlns="http://www.w3.org/2000/svg">
<path d="M9.26231 20.28C7.89965 20.28 6.64898 20.0467 5.51031 19.58C4.39031 19.0947 3.41031 18.4227 2.57031 17.564C1.74898 16.7053 1.11431 15.688 0.666313 14.512C0.218313 13.3173 -0.00568751 12.02 -0.00568751 10.62C-0.00568751 9.22 0.218313 7.932 0.666313 6.756C1.13298 5.58 1.77698 4.56267 2.59831 3.704C3.41965 2.82667 4.39031 2.15467 5.51031 1.688C6.64898 1.20267 7.89965 0.96 9.26231 0.96C10.6063 0.96 11.8383 1.20267 12.9583 1.688C14.097 2.15467 15.077 2.81733 15.8983 3.676C16.7383 4.53467 17.3823 5.56133 17.8303 6.756C18.2783 7.932 18.5023 9.22 18.5023 10.62C18.5023 12.02 18.269 13.308 17.8023 14.484C17.3543 15.66 16.7196 16.6867 15.8983 17.564C15.077 18.4227 14.097 19.0947 12.9583 19.58C11.8383 20.0467 10.6063 20.28 9.26231 20.28ZM9.26231 19.664C10.625 19.664 11.6703 18.8987 12.3983 17.368C13.1263 15.8373 13.4903 13.588 13.4903 10.62C13.4903 7.68933 13.117 5.44933 12.3703 3.9C11.6423 2.35067 10.6063 1.576 9.26231 1.576C7.88098 1.576 6.82631 2.34133 6.09831 3.872C5.37031 5.40267 5.00631 7.652 5.00631 10.62C5.00631 13.5507 5.37031 15.7907 6.09831 17.34C6.84498 18.8893 7.89965 19.664 9.26231 19.664ZM20.7021 20V19.72C21.0941 19.608 21.3647 19.384 21.5141 19.048C21.6821 18.6933 21.7661 18.1707 21.7661 17.48V3.732C21.7661 3.06 21.6821 2.556 21.5141 2.22C21.3647 1.86533 21.0941 1.632 20.7021 1.52V1.24H26.9741C29.8861 1.24 32.0421 1.69733 33.4421 2.612C34.8607 3.508 35.5701 4.796 35.5701 6.476C35.5701 8.19333 34.8607 9.51867 33.4421 10.452C32.0234 11.3853 29.8674 11.852 26.9741 11.852H26.2461V17.256C26.2461 18.0213 26.3487 18.5813 26.5541 18.936C26.7781 19.2907 27.1794 19.552 27.7581 19.72V20H20.7021ZM26.2461 11.18H26.9741C28.3554 11.18 29.3821 10.7787 30.0541 9.976C30.7261 9.17333 31.0621 8.00667 31.0621 6.476C31.0621 4.98267 30.7261 3.85333 30.0541 3.088C29.4007 2.304 28.3741 1.912 26.9741 1.912H26.2461V11.18ZM41.1213 20V19.72C41.6999 19.552 42.0919 19.3 42.2973 18.964C42.5213 18.6093 42.6333 18.04 42.6333 17.256V1.828L42.4093 1.856C41.5133 1.968 40.7479 2.22 40.1133 2.612C39.4973 3.004 38.9653 3.58267 38.5173 4.348C38.0879 5.09467 37.7146 6.06533 37.3973 7.26H37.0613L37.4253 1.24H52.3213L52.6853 7.26H52.3213C52.0039 6.10267 51.6306 5.15067 51.2013 4.404C50.7719 3.63867 50.2399 3.05067 49.6053 2.64C48.9893 2.22933 48.2239 1.968 47.3093 1.856L47.1133 1.828V17.256C47.1133 18.04 47.2159 18.6093 47.4213 18.964C47.6453 19.3 48.0373 19.552 48.5973 19.72V20H41.1213ZM54.3896 20V19.72C54.7629 19.608 55.0336 19.384 55.2016 19.048C55.3696 18.712 55.4536 18.1893 55.4536 17.48V3.732C55.4536 3.04133 55.3696 2.528 55.2016 2.192C55.0336 1.856 54.7629 1.632 54.3896 1.52V1.24H61.0256V1.52C60.6336 1.632 60.3536 1.856 60.1856 2.192C60.0176 2.528 59.9336 3.04133 59.9336 3.732V17.48C59.9336 18.1893 60.0176 18.712 60.1856 19.048C60.3536 19.384 60.6336 19.608 61.0256 19.72V20H54.3896ZM62.6531 20V19.72C63.1757 19.44 63.5864 19.0573 63.8851 18.572C64.1837 18.0867 64.3984 17.4613 64.5291 16.696C64.6784 15.912 64.7531 14.9227 64.7531 13.728V3.816L64.5571 3.424C64.2957 2.84533 64.0251 2.416 63.7451 2.136C63.4837 1.83733 63.1571 1.632 62.7651 1.52V1.24H68.7291L74.2451 13.812L79.3131 1.24H84.3251V1.52C83.9331 1.632 83.6531 1.86533 83.4851 2.22C83.3171 2.556 83.2331 3.06 83.2331 3.732V17.48C83.2331 18.1707 83.3171 18.6933 83.4851 19.048C83.6531 19.384 83.9331 19.608 84.3251 19.72V20H77.6891V19.72C78.0811 19.608 78.3517 19.384 78.5011 19.048C78.6691 18.6933 78.7531 18.1707 78.7531 17.48V4.88L72.7331 20H72.1171L65.5651 5.608V13.728C65.5651 14.9413 65.6397 15.9307 65.7891 16.696C65.9571 17.4427 66.2371 18.0493 66.6291 18.516C67.0211 18.964 67.5624 19.356 68.2531 19.692V20H62.6531ZM95.7779 20.28C94.4153 20.28 93.1646 20.0467 92.0259 19.58C90.9059 19.0947 89.9259 18.4227 89.0859 17.564C88.2646 16.7053 87.6299 15.688 87.1819 14.512C86.7339 13.3173 86.5099 12.02 86.5099 10.62C86.5099 9.22 86.7339 7.932 87.1819 6.756C87.6486 5.58 88.2926 4.56267 89.1139 3.704C89.9353 2.82667 90.9059 2.15467 92.0259 1.688C93.1646 1.20267 94.4153 0.96 95.7779 0.96C97.1219 0.96 98.3539 1.20267 99.4739 1.688C100.613 2.15467 101.593 2.81733 102.414 3.676C103.254 4.53467 103.898 5.56133 104.346 6.756C104.794 7.932 105.018 9.22 105.018 10.62C105.018 12.02 104.785 13.308 104.318 14.484C103.87 15.66 103.235 16.6867 102.414 17.564C101.593 18.4227 100.613 19.0947 99.4739 19.58C98.3539 20.0467 97.1219 20.28 95.7779 20.28ZM95.7779 19.664C97.1406 19.664 98.1859 18.8987 98.9139 17.368C99.6419 15.8373 100.006 13.588 100.006 10.62C100.006 7.68933 99.6326 5.44933 98.8859 3.9C98.1579 2.35067 97.1219 1.576 95.7779 1.576C94.3966 1.576 93.3419 2.34133 92.6139 3.872C91.8859 5.40267 91.5219 7.652 91.5219 10.62C91.5219 13.5507 91.8859 15.7907 92.6139 17.34C93.3606 18.8893 94.4153 19.664 95.7779 19.664Z" fill="#1D1EE3"/>
</svg>
