<svg width="121" height="23" viewBox="0 0 121 23" fill="none" xmlns="http://www.w3.org/2000/svg">
<path d="M11.0855 22.32C9.52817 22.32 8.09883 22.0533 6.7975 21.52C5.5175 20.9653 4.3975 20.1973 3.4375 19.216C2.49883 18.2347 1.7735 17.072 1.2615 15.728C0.7495 14.3627 0.4935 12.88 0.4935 11.28C0.4935 9.68 0.7495 8.208 1.2615 6.864C1.79483 5.52 2.53083 4.35733 3.4695 3.376C4.40817 2.37333 5.5175 1.60533 6.7975 1.072C8.09883 0.517333 9.52817 0.24 11.0855 0.24C12.6215 0.24 14.0295 0.517333 15.3095 1.072C16.6108 1.60533 17.7308 2.36267 18.6695 3.344C19.6295 4.32533 20.3655 5.49867 20.8775 6.864C21.3895 8.208 21.6455 9.68 21.6455 11.28C21.6455 12.88 21.3788 14.352 20.8455 15.696C20.3335 17.04 19.6082 18.2133 18.6695 19.216C17.7308 20.1973 16.6108 20.9653 15.3095 21.52C14.0295 22.0533 12.6215 22.32 11.0855 22.32ZM11.0855 21.616C12.6428 21.616 13.8375 20.7413 14.6695 18.992C15.5015 17.2427 15.9175 14.672 15.9175 11.28C15.9175 7.93067 15.4908 5.37067 14.6375 3.6C13.8055 1.82933 12.6215 0.943998 11.0855 0.943998C9.50683 0.943998 8.3015 1.81867 7.4695 3.568C6.6375 5.31733 6.2215 7.888 6.2215 11.28C6.2215 14.6293 6.6375 17.1893 7.4695 18.96C8.32283 20.7307 9.52817 21.616 11.0855 21.616ZM24.1595 22V21.68C24.6075 21.552 24.9168 21.296 25.0875 20.912C25.2795 20.5067 25.3755 19.9093 25.3755 19.12V3.408C25.3755 2.64 25.2795 2.064 25.0875 1.68C24.9168 1.27467 24.6075 1.008 24.1595 0.879999V0.559999H31.3275C34.6555 0.559999 37.1195 1.08267 38.7195 2.128C40.3408 3.152 41.1515 4.624 41.1515 6.544C41.1515 8.50667 40.3408 10.0213 38.7195 11.088C37.0982 12.1547 34.6342 12.688 31.3275 12.688H30.4955V18.864C30.4955 19.7387 30.6128 20.3787 30.8475 20.784C31.1035 21.1893 31.5622 21.488 32.2235 21.68V22H24.1595ZM30.4955 11.92H31.3275C32.9062 11.92 34.0795 11.4613 34.8475 10.544C35.6155 9.62667 35.9995 8.29333 35.9995 6.544C35.9995 4.83733 35.6155 3.54667 34.8475 2.672C34.1008 1.776 32.9275 1.328 31.3275 1.328H30.4955V11.92ZM47.4958 22V21.68C48.1571 21.488 48.6051 21.2 48.8398 20.816C49.0958 20.4107 49.2238 19.76 49.2238 18.864V1.232L48.9678 1.264C47.9438 1.392 47.0691 1.68 46.3438 2.128C45.6398 2.576 45.0318 3.23733 44.5198 4.112C44.0291 4.96533 43.6024 6.07467 43.2398 7.44H42.8558L43.2718 0.559999H60.2958L60.7118 7.44H60.2958C59.9331 6.11733 59.5064 5.02933 59.0158 4.176C58.5251 3.30133 57.9171 2.62933 57.1918 2.16C56.4878 1.69067 55.6131 1.392 54.5678 1.264L54.3438 1.232V18.864C54.3438 19.76 54.4611 20.4107 54.6958 20.816C54.9518 21.2 55.3998 21.488 56.0398 21.68V22H47.4958ZM62.6595 22V21.68C63.0862 21.552 63.3955 21.296 63.5875 20.912C63.7795 20.528 63.8755 19.9307 63.8755 19.12V3.408C63.8755 2.61867 63.7795 2.032 63.5875 1.648C63.3955 1.264 63.0862 1.008 62.6595 0.879999V0.559999H70.2435V0.879999C69.7955 1.008 69.4755 1.264 69.2835 1.648C69.0915 2.032 68.9955 2.61867 68.9955 3.408V19.12C68.9955 19.9307 69.0915 20.528 69.2835 20.912C69.4755 21.296 69.7955 21.552 70.2435 21.68V22H62.6595ZM72.1035 22V21.68C72.7008 21.36 73.1702 20.9227 73.5115 20.368C73.8528 19.8133 74.0982 19.0987 74.2475 18.224C74.4182 17.328 74.5035 16.1973 74.5035 14.832V3.504L74.2795 3.056C73.9808 2.39467 73.6715 1.904 73.3515 1.584C73.0528 1.24267 72.6795 1.008 72.2315 0.879999V0.559999H79.0475L85.3515 14.928L91.1435 0.559999H96.8715V0.879999C96.4235 1.008 96.1035 1.27467 95.9115 1.68C95.7195 2.064 95.6235 2.64 95.6235 3.408V19.12C95.6235 19.9093 95.7195 20.5067 95.9115 20.912C96.1035 21.296 96.4235 21.552 96.8715 21.68V22H89.2875V21.68C89.7355 21.552 90.0448 21.296 90.2155 20.912C90.4075 20.5067 90.5035 19.9093 90.5035 19.12V4.72L83.6235 22H82.9195L75.4315 5.552V14.832C75.4315 16.2187 75.5168 17.3493 75.6875 18.224C75.8795 19.0773 76.1995 19.7707 76.6475 20.304C77.0955 20.816 77.7142 21.264 78.5035 21.648V22H72.1035ZM109.961 22.32C108.403 22.32 106.974 22.0533 105.673 21.52C104.393 20.9653 103.273 20.1973 102.312 19.216C101.374 18.2347 100.649 17.072 100.137 15.728C99.6245 14.3627 99.3685 12.88 99.3685 11.28C99.3685 9.68 99.6245 8.208 100.137 6.864C100.67 5.52 101.406 4.35733 102.345 3.376C103.283 2.37333 104.393 1.60533 105.673 1.072C106.974 0.517333 108.403 0.24 109.961 0.24C111.497 0.24 112.905 0.517333 114.185 1.072C115.486 1.60533 116.606 2.36267 117.545 3.344C118.505 4.32533 119.241 5.49867 119.753 6.864C120.265 8.208 120.521 9.68 120.521 11.28C120.521 12.88 120.254 14.352 119.721 15.696C119.209 17.04 118.483 18.2133 117.545 19.216C116.606 20.1973 115.486 20.9653 114.185 21.52C112.905 22.0533 111.497 22.32 109.961 22.32ZM109.961 21.616C111.518 21.616 112.713 20.7413 113.545 18.992C114.377 17.2427 114.793 14.672 114.793 11.28C114.793 7.93067 114.366 5.37067 113.513 3.6C112.681 1.82933 111.497 0.943998 109.961 0.943998C108.382 0.943998 107.177 1.81867 106.345 3.568C105.513 5.31733 105.097 7.888 105.097 11.28C105.097 14.6293 105.513 17.1893 106.345 18.96C107.198 20.7307 108.403 21.616 109.961 21.616Z" fill="#F3F3FF"/>
</svg>
