<svg width="32" height="32" viewBox="0 0 32 32" fill="none" xmlns="http://www.w3.org/2000/svg">
<path d="M30.3197 15.1867L28.3997 24.7867C28.218 25.6926 27.7282 26.5077 27.0136 27.0935C26.299 27.6793 25.4037 27.9996 24.4797 28H5.33301C4.27214 28 3.25473 27.5786 2.50458 26.8284C1.75444 26.0783 1.33301 25.0609 1.33301 24V8C1.33301 6.93913 1.75444 5.92172 2.50458 5.17157C3.25473 4.42143 4.27214 4 5.33301 4H10.6663C10.9277 4.00204 11.1827 4.08086 11.3997 4.22667L15.0663 6.66667H22.6663C23.7272 6.66667 24.7446 7.08809 25.4948 7.83824C26.2449 8.58839 26.6663 9.6058 26.6663 10.6667H23.9997C23.9997 10.313 23.8592 9.97391 23.6092 9.72386C23.3591 9.47381 23.02 9.33333 22.6663 9.33333H14.6663C14.405 9.33129 14.15 9.25247 13.933 9.10667L10.2663 6.66667H5.33301C4.97939 6.66667 4.64025 6.80714 4.3902 7.05719C4.14015 7.30724 3.99967 7.64638 3.99967 8V24C3.99967 24.3536 4.14015 24.6928 4.3902 24.9428C4.64025 25.1929 4.97939 25.3333 5.33301 25.3333H5.57301L7.59967 15.2133C7.78139 14.3074 8.27115 13.4923 8.98574 12.9065C9.70033 12.3207 10.5957 12.0004 11.5197 12H27.7063C28.1014 11.999 28.4918 12.0858 28.8492 12.2542C29.2066 12.4225 29.5221 12.6681 29.773 12.9733C30.0221 13.2789 30.2003 13.6359 30.2948 14.0186C30.3893 14.4014 30.3978 14.8003 30.3197 15.1867Z" fill="#1D1EE3"/>
</svg>
