<svg width="32" height="32" viewBox="0 0 32 32" fill="none" xmlns="http://www.w3.org/2000/svg">
<path d="M11.4289 16.0003C12.5592 16.0003 13.6642 15.6651 14.6041 15.0371C15.5439 14.4091 16.2764 13.5165 16.7089 12.4721C17.1415 11.4278 17.2546 10.2786 17.034 9.17001C16.8134 8.06138 16.269 7.04306 15.4696 6.24385C14.6703 5.44463 13.6519 4.90041 12.5432 4.68001C11.4345 4.4596 10.2854 4.57292 9.24114 5.00563C8.19688 5.43834 7.30438 6.171 6.67653 7.11096C6.04868 8.05092 5.71367 9.15595 5.71387 10.2863C5.71546 11.8014 6.31811 13.2541 7.38957 14.3253C8.46102 15.3966 9.91373 15.999 11.4289 16.0003Z" fill="#1D1EE3"/>
<path d="M18.905 20.7206C17.4568 19.2352 15.5987 18.2152 13.568 17.7909C11.5374 17.3666 9.42631 17.5572 7.50452 18.3385C5.58273 19.1198 3.93745 20.4562 2.77886 22.1771C1.62026 23.8979 1.00094 25.9251 1 27.9996C1 28.2648 1.10536 28.5192 1.29289 28.7067C1.48043 28.8942 1.73478 28.9996 2 28.9996H20.86C21.1252 28.9996 21.3796 28.8942 21.5671 28.7067C21.7546 28.5192 21.86 28.2648 21.86 27.9996C21.8639 26.9392 21.7002 25.8849 21.375 24.8756C20.8908 23.3152 20.0444 21.8915 18.905 20.7206Z" fill="#1D1EE3"/>
<path d="M23.5 16.5C25.8472 16.5 27.75 14.5972 27.75 12.25C27.75 9.90279 25.8472 8 23.5 8C21.1528 8 19.25 9.90279 19.25 12.25C19.25 14.5972 21.1528 16.5 23.5 16.5Z" fill="#1D1EE3"/>
<path d="M23.5003 17.6699C22.1599 17.675 20.8454 18.04 19.6943 18.7269C19.9113 18.9209 20.1303 19.1119 20.3353 19.3219C21.697 20.7215 22.7085 22.4231 23.2873 24.2879C23.4856 24.9019 23.6318 25.5314 23.7243 26.1699H30.0003C30.2656 26.1699 30.5199 26.0646 30.7074 25.877C30.895 25.6895 31.0003 25.4351 31.0003 25.1699C30.9982 23.1814 30.2074 21.275 28.8013 19.869C27.3952 18.4629 25.4888 17.672 23.5003 17.6699Z" fill="#1D1EE3"/>
</svg>
