<svg width="32" height="32" viewBox="0 0 32 32" fill="none" xmlns="http://www.w3.org/2000/svg">
<g clip-path="url(#clip0_538_1775)">
<path d="M8.70776 7.38305L6.05638 4.73167C5.6902 4.36548 5.09688 4.36548 4.7307 4.73167C4.36451 5.09786 4.36451 5.69117 4.7307 6.05736L7.38207 8.70873C7.74826 9.07492 8.34157 9.07492 8.70776 8.70873C9.07394 8.34255 9.07394 7.74923 8.70776 7.38305Z" fill="#1D1EE3"/>
<path d="M4.75 15.0625H0.9375C0.419312 15.0625 0 15.4818 0 16C0 16.5182 0.419312 16.9375 0.9375 16.9375H4.75C5.26819 16.9375 5.6875 16.5182 5.6875 16C5.6875 15.4818 5.26819 15.0625 4.75 15.0625Z" fill="#1D1EE3"/>
<path d="M31.0625 15.0625H27.25C26.7318 15.0625 26.3125 15.4818 26.3125 16C26.3125 16.5182 26.7318 16.9375 27.25 16.9375H31.0625C31.5807 16.9375 32 16.5182 32 16C32 15.4818 31.5807 15.0625 31.0625 15.0625Z" fill="#1D1EE3"/>
<path d="M27.2693 4.73167C26.9031 4.36548 26.3098 4.36548 25.9436 4.73167L23.2922 7.38305C22.926 7.74923 22.926 8.34255 23.2922 8.70873C23.6584 9.07492 24.2517 9.07492 24.6179 8.70873L27.2693 6.05736C27.6355 5.69117 27.6355 5.09792 27.2693 4.73167Z" fill="#1D1EE3"/>
<path d="M16 0C15.4818 0 15.0625 0.419312 15.0625 0.9375V4.75C15.0625 5.26819 15.4818 5.6875 16 5.6875C16.5182 5.6875 16.9375 5.26819 16.9375 4.75V0.9375C16.9375 0.419312 16.5182 0 16 0Z" fill="#1D1EE3"/>
<path d="M21.2499 9.38166C19.2062 7.76916 16.5624 7.18797 13.9749 7.80672C10.9749 8.50047 8.55622 10.8817 7.82491 13.863C7.09366 16.8629 7.93741 19.9004 10.0936 22.0192C10.8624 22.788 11.3124 23.9942 11.3124 25.2317V25.438C11.3124 25.9629 11.7248 26.3755 12.2499 26.3755H19.7499C20.275 26.3755 20.6874 25.9629 20.6874 25.438V25.2317C20.6874 24.0129 21.1562 22.7692 21.9812 21.9629C23.5562 20.3692 24.4374 18.2505 24.4374 16.0005C24.4374 13.413 23.2749 10.9942 21.2499 9.38166Z" fill="#1D1EE3"/>
<path d="M12.25 28.25V29.1875C12.25 30.7384 13.5116 32 15.0625 32H16.9375C18.4884 32 19.75 30.7384 19.75 29.1875V28.25H12.25Z" fill="#1D1EE3"/>
</g>
<defs>
<clipPath id="clip0_538_1775">
<rect width="32" height="32" fill="white"/>
</clipPath>
</defs>
</svg>
