<svg width="24" height="24" viewBox="0 0 24 24" fill="none" xmlns="http://www.w3.org/2000/svg">
<path d="M15.6767 2.39149C16.0549 2.25567 16.3967 2.22001 16.7587 2.2743C17.0651 2.32033 17.4134 2.44664 17.7089 2.5536C19.4565 3.18542 20.8144 4.54332 21.4462 6.29091C21.5532 6.58639 21.6795 6.93473 21.7255 7.2411C21.7798 7.60314 21.7442 7.94486 21.6083 8.32313C21.3172 9.13353 20.6643 9.49625 19.9452 9.8954L18.5273 10.6864C18.0146 10.9724 17.6756 11.1613 17.4345 11.328C17.1997 11.4903 17.1331 11.5818 17.1054 11.6356C17.0908 11.664 17.0456 11.8026 17.0575 12.2509C17.0689 12.6744 17.1232 13.2489 17.2021 14.0663C17.3292 15.3844 17.1112 16.6907 16.3505 17.9071C16.2222 18.1126 16.0601 18.3712 15.8798 18.5634C15.6668 18.7903 15.4214 18.951 15.1054 19.079C14.7836 19.2094 14.4906 19.2621 14.1747 19.2479C13.906 19.2359 13.5974 19.1659 13.3398 19.1073C11.6752 18.7294 10.0758 17.8541 8.71867 16.6942L3.95696 21.4569C3.56643 21.8474 2.93342 21.8474 2.54289 21.4569C2.15237 21.0664 2.15237 20.4334 2.54289 20.0429L7.30364 15.2811C6.14411 13.9242 5.27035 12.3242 4.8925 10.66C4.83393 10.4025 4.76385 10.0938 4.75188 9.82509C4.73783 9.50921 4.79134 9.2162 4.9218 8.89442C5.04995 8.57843 5.21029 8.33298 5.43742 8.12001C5.6297 7.93973 5.88822 7.77848 6.09367 7.65028C7.29302 6.901 8.58827 6.6694 9.89641 6.78505C10.7316 6.85892 11.3208 6.91077 11.7538 6.91981C11.9677 6.92428 12.2386 6.94247 12.3798 6.86903C12.4322 6.84175 12.5235 6.7753 12.6864 6.53895C12.8533 6.29683 13.0435 5.95681 13.33 5.44325L14.1044 4.05458C14.5036 3.33549 14.8663 2.68266 15.6767 2.39149Z" fill="#1D1EE3"/>
</svg>
