<svg width="32" height="32" viewBox="0 0 32 32" fill="none" xmlns="http://www.w3.org/2000/svg">
<g clip-path="url(#clip0_538_1739)">
<path d="M25.8775 9.35371L20.5945 8.58602L18.2318 3.79884C17.3196 1.95022 14.6808 1.94953 13.7682 3.79878L11.4055 8.58602L6.12244 9.35371C4.08245 9.65008 3.26651 12.1594 4.74313 13.5989L8.566 17.3253L7.66356 22.5869C7.31507 24.6185 9.44919 26.17 11.2747 25.2106L16 22.7262L20.7254 25.2106C22.553 26.1713 24.6842 24.6139 24.3363 22.5869L23.4339 17.3253L27.2568 13.5989C28.7329 12.1599 27.9183 9.65027 25.8775 9.35371Z" fill="#1D1EE3"/>
<path d="M8.4211 2.94739L7.14542 1.19165C6.79911 0.715149 6.13205 0.609461 5.65555 0.955773C5.17898 1.30202 5.07336 1.96908 5.41961 2.44565L6.69529 4.20139C7.04179 4.67814 7.70892 4.78345 8.18517 4.43727C8.66173 4.09108 8.76735 3.42396 8.4211 2.94739Z" fill="#1D1EE3"/>
<path d="M4.18728 18.6807C4.00522 18.1206 3.4036 17.8137 2.84322 17.9959L0.73729 18.6802C0.177041 18.8622 -0.129521 19.464 0.052479 20.0243C0.234854 20.5856 0.837727 20.8909 1.39654 20.7091L3.50253 20.0248C4.06278 19.8429 4.36935 19.2411 4.18728 18.6807Z" fill="#1D1EE3"/>
<path d="M26.3454 0.955791C25.8689 0.609479 25.2018 0.715104 24.8555 1.19167L23.5798 2.94741C23.2335 3.42397 23.3392 4.0911 23.8157 4.43728C24.2925 4.78366 24.9594 4.67778 25.3056 4.20141L26.5813 2.44566C26.9276 1.9691 26.8219 1.30204 26.3454 0.955791Z" fill="#1D1EE3"/>
<path d="M31.2623 18.6822L29.1563 17.9979C28.5961 17.8156 27.9943 18.1225 27.8123 18.6827C27.6302 19.243 27.9368 19.8447 28.4971 20.0268L30.6031 20.7111C31.1622 20.893 31.7648 20.5873 31.9471 20.0263C32.1291 19.4661 31.8226 18.8643 31.2623 18.6822Z" fill="#1D1EE3"/>
<path d="M16.0002 26.9492C15.4112 26.9492 14.9336 27.4268 14.9336 28.0158V30.1807C14.9336 30.7698 15.4112 31.2473 16.0002 31.2473C16.5893 31.2473 17.0668 30.7698 17.0668 30.1807V28.0158C17.0669 27.4268 16.5893 26.9492 16.0002 26.9492Z" fill="#1D1EE3"/>
</g>
<defs>
<clipPath id="clip0_538_1739">
<rect width="32" height="32" fill="white"/>
</clipPath>
</defs>
</svg>
