<svg width="32" height="32" viewBox="0 0 32 32" fill="none" xmlns="http://www.w3.org/2000/svg">
<g clip-path="url(#clip0_538_1866)">
<path d="M31.6607 15.1754L26.8979 10.4114C26.4442 9.95831 26.5856 9.47388 27.2108 9.33306C27.2108 9.33306 27.7273 9.21656 28.3635 8.58044C29.7292 7.21537 29.7279 4.99919 28.3635 3.63606C26.9971 2.27037 24.784 2.27037 23.4177 3.63606C22.7815 4.27219 22.6657 4.788 22.6657 4.788C22.5248 5.4145 22.0391 5.55469 21.5867 5.10031L16.8239 0.340313C16.3708 -0.113438 15.6284 -0.113438 15.1753 0.340313L10.4132 5.10169C9.96072 5.55606 10.1008 6.04181 10.7261 6.18194C10.7261 6.18194 11.2432 6.29844 11.8787 6.93325C13.2425 8.29831 13.2445 10.5133 11.8787 11.8796C10.5137 13.2446 8.29734 13.2433 6.93359 11.8796C6.29809 11.2428 6.18159 10.7263 6.18159 10.7263C6.04141 10.1004 5.55503 9.96025 5.10197 10.4134L0.339844 15.1761C-0.113281 15.6292 -0.113281 16.3709 0.339844 16.8233L5.10197 21.5859C5.55509 22.0391 5.41428 22.5247 4.78903 22.6656C4.78903 22.6656 4.27259 22.7827 3.63641 23.4182C2.27066 24.7845 2.27066 26.9982 3.63641 28.3633C5.00147 29.7283 7.21584 29.7296 8.58153 28.3633C9.21834 27.7271 9.33353 27.2113 9.33353 27.2113C9.47434 26.5848 9.96009 26.4446 10.4125 26.8996L15.1753 31.6597C15.6284 32.1134 16.3708 32.1134 16.8239 31.6597L21.5873 26.8983C22.0404 26.4452 21.899 25.9582 21.2743 25.8187C21.2743 25.8187 20.7566 25.7022 20.1211 25.0674C18.7547 23.7011 18.7553 21.4874 20.1211 20.1211C21.4862 18.756 23.7005 18.7541 25.0662 20.1211C25.7023 20.7572 25.8175 21.2743 25.8175 21.2743C25.959 21.9008 26.4441 22.0416 26.8978 21.5886L31.6606 16.8246C32.1132 16.3703 32.1132 15.6285 31.6607 15.1754Z" fill="#1D1EE3"/>
</g>
<defs>
<clipPath id="clip0_538_1866">
<rect width="32" height="32" fill="white"/>
</clipPath>
</defs>
</svg>
