<svg width="32" height="32" viewBox="0 0 32 32" fill="none" xmlns="http://www.w3.org/2000/svg">
<path d="M29.8501 2.39349C29.8251 2.28099 29.7376 2.19349 29.6314 2.16224C25.9689 1.26849 17.5126 4.45599 12.9314 9.03724C12.1126 9.84974 11.3689 10.731 10.7064 11.6685C9.29387 11.5435 7.88137 11.6497 6.67512 12.1747C3.27512 13.6685 2.28762 17.5747 2.00637 19.2497C1.95012 19.5747 2.16887 19.8872 2.50012 19.9435C2.55637 19.9497 2.61262 19.956 2.66887 19.9497L8.12512 19.3497C8.13137 19.7622 8.15637 20.1747 8.20012 20.581C8.22512 20.8622 8.35637 21.131 8.55637 21.331L10.6689 23.4372C10.8689 23.6372 11.1376 23.7685 11.4189 23.7935C11.8251 23.8372 12.2314 23.8622 12.6439 23.8685L12.0439 29.3185C12.0064 29.6497 12.2501 29.9497 12.5814 29.981C12.6376 29.9872 12.6939 29.9872 12.7439 29.9747C14.4189 29.706 18.3314 28.7185 19.8189 25.3185C20.3439 24.1122 20.4501 22.706 20.3314 21.2997C21.2751 20.6372 22.1564 19.8872 22.9689 19.0747C27.5626 14.506 30.7314 6.23724 29.8501 2.39349ZM22.6189 13.6185C21.4501 14.7872 19.5501 14.7935 18.3814 13.6185C17.2064 12.4497 17.2064 10.5497 18.3814 9.37474C19.5501 8.19974 21.4501 8.19974 22.6251 9.37474C23.7939 10.5497 23.7939 12.4497 22.6189 13.6185Z" fill="#1D1EE3"/>
<path d="M10.525 24.9613C10.1812 25.3051 9.63125 25.4363 8.96875 25.5551C7.48125 25.8051 6.16875 24.5238 6.4375 23.0238C6.5375 22.4551 6.84375 21.6551 7.03125 21.4676C7.1375 21.3613 7.14375 21.1863 7.0375 21.0801C6.975 21.0176 6.89375 20.9863 6.80625 20.9988C5.975 21.0988 5.2 21.4801 4.6125 22.0676C3.1375 23.5426 3 28.9988 3 28.9988C3 28.9988 8.4625 28.8613 9.93125 27.3863C10.525 26.7926 10.9 26.0238 11 25.1863C11.025 24.9301 10.7062 24.7738 10.525 24.9613Z" fill="#1D1EE3"/>
</svg>
