<svg width="34" height="28" viewBox="0 0 34 28" fill="none" xmlns="http://www.w3.org/2000/svg">
<path d="M3.2107 24.64C1.32181 22.5866 0.188477 20.3466 0.188477 16.6133C0.188477 10.08 4.9107 4.29331 11.5218 1.30664L13.2218 3.73331C6.98848 7.09331 5.66625 11.3866 5.28848 14.1866C6.23292 13.6266 7.55514 13.44 8.87737 13.6266C12.2774 14 14.9218 16.6133 14.9218 20.16C14.9218 21.84 14.1663 23.52 13.0329 24.8266C11.7107 26.1333 10.1996 26.6933 8.3107 26.6933C6.23292 26.6933 4.34403 25.76 3.2107 24.64ZM22.0996 24.64C20.2107 22.5866 19.0774 20.3466 19.0774 16.6133C19.0774 10.08 23.7996 4.29331 30.4107 1.30664L32.1107 3.73331C25.8774 7.09331 24.5551 11.3866 24.1774 14.1866C25.1218 13.6266 26.444 13.44 27.7663 13.6266C31.1663 14 33.8107 16.6133 33.8107 20.16C33.8107 21.84 33.0551 23.52 31.9218 24.8266C30.7885 26.1333 29.0885 26.6933 27.1996 26.6933C25.1218 26.6933 23.2329 25.76 22.0996 24.64Z" fill="#555864"/>
</svg>
