<svg width="16" height="16" viewBox="0 0 16 16" fill="none" xmlns="http://www.w3.org/2000/svg">
<path fill-rule="evenodd" clip-rule="evenodd" d="M0.833374 7.99967C0.833374 11.9577 4.04204 15.1663 8.00004 15.1663C11.958 15.1663 15.1667 11.9577 15.1667 7.99967C15.1667 4.04167 11.958 0.833008 8.00004 0.833008C4.04204 0.833008 0.833374 4.04167 0.833374 7.99967ZM11.1174 5.50833C11.3887 5.757 11.4067 6.17899 11.158 6.45033L7.49138 10.4503C7.36872 10.5843 7.19604 10.6623 7.01471 10.6663C6.83271 10.6703 6.65737 10.5997 6.5287 10.471L4.86204 8.80436C4.60137 8.54436 4.60137 8.12165 4.86204 7.86165C5.12204 7.60099 5.54471 7.60099 5.80471 7.86165L6.97937 9.03568L10.1754 5.54902C10.424 5.27769 10.846 5.25967 11.1174 5.50833Z" fill="white"/>
</svg>
