<svg width="40" height="40" viewBox="0 0 40 40" fill="none" xmlns="http://www.w3.org/2000/svg">
<path d="M26.127 3.98617C26.7578 3.75954 27.3271 3.69935 27.9307 3.78988C28.4416 3.86652 29.0229 4.07732 29.5157 4.2557C32.4283 5.30875 34.6911 7.57164 35.7442 10.4842C35.9226 10.977 36.1334 11.5582 36.21 12.0692C36.3005 12.6728 36.2403 13.2421 36.0137 13.8729C35.5284 15.2234 34.4406 15.8268 33.2422 16.492L30.8789 17.8104C30.0244 18.287 29.4596 18.6028 29.0577 18.8807C28.6667 19.151 28.5551 19.3027 28.5088 19.3924C28.4845 19.4396 28.4088 19.6706 28.4287 20.4178C28.4476 21.1238 28.5395 22.0817 28.6709 23.4442C28.8828 25.6409 28.5178 27.8173 27.25 29.8446C27.0361 30.187 26.7674 30.618 26.4668 30.9383C26.1117 31.3168 25.7026 31.5842 25.1758 31.7977C24.6396 32.015 24.1514 32.1034 23.625 32.0799C23.1773 32.0599 22.6628 31.9422 22.2334 31.8446C19.4595 31.2147 16.793 29.7579 14.5313 27.825L6.59476 35.7616C5.94388 36.4123 4.88914 36.4124 4.23832 35.7616C3.5875 35.1107 3.58761 34.056 4.23832 33.4051L12.1739 25.4676C10.2414 23.2061 8.78505 20.54 8.15531 17.7664C8.05772 17.3374 7.93995 16.8235 7.91996 16.3758C7.89651 15.8492 7.98471 15.3604 8.20219 14.8241C8.4158 14.2972 8.68389 13.8881 9.06254 13.533C9.38304 13.2326 9.81388 12.9635 10.1563 12.7498C12.1553 11.501 14.3148 11.1156 16.4952 11.3084C17.8869 11.4315 18.8682 11.518 19.5899 11.533C19.9464 11.5405 20.3986 11.5716 20.6338 11.4491C20.7211 11.4036 20.873 11.2923 21.1446 10.8983C21.4227 10.4947 21.7394 9.92803 22.2168 9.0721L23.5078 6.75765C24.173 5.55925 24.7764 4.47144 26.127 3.98617Z" fill="#F3F3FF"/>
</svg>
